TITLE "Cold Spring Harbor"
PERFORMER "Billy Joel"
REM GENRE "Rock"
REM DATE "2011"
REM DISCID 7E07210A
REM REPLAYGAIN_ALBUM_GAIN -7.11 dB
REM REPLAYGAIN_ALBUM_PEAK 0.995819
FILE "01 - Billy Joel - She's Got A Way.flac" WAVE
  TRACK 01 AUDIO
    TITLE "She's Got A Way"
    ISRC USSM11100711
    REM REPLAYGAIN_TRACK_GAIN -6.37 dB
    REM REPLAYGAIN_TRACK_PEAK 0.977173
    INDEX 01 00:00:00
FILE "02 - Billy Joel - You Can Make Me Free.flac" WAVE
  TRACK 02 AUDIO
    TITLE "You Can Make Me Free"
    ISRC USSM11100712
    REM REPLAYGAIN_TRACK_GAIN -7.76 dB
    REM REPLAYGAIN_TRACK_PEAK 0.978271
    INDEX 01 00:00:00
FILE "03 - Billy Joel - Everybody Loves You Now.flac" WAVE
  TRACK 03 AUDIO
    TITLE "Everybody Loves You Now"
    ISRC USSM11100713
    REM REPLAYGAIN_TRACK_GAIN -7.70 dB
    REM REPLAYGAIN_TRACK_PEAK 0.989075
    INDEX 01 00:00:00
FILE "04 - Billy Joel - Why Judy Why.flac" WAVE
  TRACK 04 AUDIO
    TITLE "Why Judy Why"
    ISRC USSM11100714
    REM REPLAYGAIN_TRACK_GAIN -5.21 dB
    REM REPLAYGAIN_TRACK_PEAK 0.977051
    INDEX 01 00:00:00
FILE "05 - Billy Joel - Falling of the Rain.flac" WAVE
  TRACK 05 AUDIO
    TITLE "Falling of the Rain"
    ISRC USSM11100715
    REM REPLAYGAIN_TRACK_GAIN -6.33 dB
    REM REPLAYGAIN_TRACK_PEAK 0.977722
    INDEX 01 00:00:00
FILE "06 - Billy Joel - Turn Around.flac" WAVE
  TRACK 06 AUDIO
    TITLE "Turn Around"
    ISRC USSM11100716
    REM REPLAYGAIN_TRACK_GAIN -7.83 dB
    REM REPLAYGAIN_TRACK_PEAK 0.995819
    INDEX 01 00:00:00
FILE "07 - Billy Joel - You Look So Good To Me.flac" WAVE
  TRACK 07 AUDIO
    TITLE "You Look So Good To Me"
    ISRC USSM11100717
    REM REPLAYGAIN_TRACK_GAIN -7.44 dB
    REM REPLAYGAIN_TRACK_PEAK 0.980377
    INDEX 01 00:00:00
FILE "08 - Billy Joel - Tomorrow is Today.flac" WAVE
  TRACK 08 AUDIO
    TITLE "Tomorrow is Today"
    ISRC USSM11100718
    REM REPLAYGAIN_TRACK_GAIN -7.26 dB
    REM REPLAYGAIN_TRACK_PEAK 0.968445
    INDEX 01 00:00:00
FILE "09 - Billy Joel - Nocturne.flac" WAVE
  TRACK 09 AUDIO
    TITLE "Nocturne"
    ISRC USSM11100719
    REM REPLAYGAIN_TRACK_GAIN -3.54 dB
    REM REPLAYGAIN_TRACK_PEAK 0.966644
    INDEX 01 00:00:00
FILE "10 - Billy Joel - Got To Begin Again.flac" WAVE
  TRACK 10 AUDIO
    TITLE "Got To Begin Again"
    ISRC USSM11100720
    REM REPLAYGAIN_TRACK_GAIN -6.39 dB
    REM REPLAYGAIN_TRACK_PEAK 0.967072
    INDEX 01 00:00:00
